# xmcd
#
# Track frame offsets: 
#        150
#        15797
#        29490
#        49881
#        71665
#        91267
#        112846
#        129497
#        140395
#        154634
#        167671
#        184815
#
# Disc length: 2751 seconds
#
# Revision: 0
# Processed by: cddbd v1.5.2PL0 Copyright (c) Steve Scherf et al.
# Submitted via: ExactAudioCopy v0.99pb4
#
DISCID=920abd0c
DTITLE=Albertina Walker - Platinum Gospel
DYEAR=2011
DGENRE=Gospel
TTITLE0=Sail Away
TTITLE1=Dry Bones
TTITLE2=You Can't Beat God Giving
TTITLE3=Move On Up A Little Higher
TTITLE4=New Doctor
TTITLE5=Stand By Me
TTITLE6=If I Had A Hammer
TTITLE7=Put A Little Love In Your Heart
TTITLE8=Born Again
TTITLE9=Jesus Will Fix It
TTITLE10=God Is Not Dead
TTITLE11=Where He Leads Me
EXTD=
EXTT0=
EXTT1=
EXTT2=
EXTT3=
EXTT4=
EXTT5=
EXTT6=
EXTT7=
EXTT8=
EXTT9=
EXTT10=
EXTT11=
PLAYORDER=
